<?xml version="1.0" standalone="no"?>
<!DOCTYPE svg PUBLIC "-//W3C//DTD SVG 20010904//EN"
 "http://www.w3.org/TR/2001/REC-SVG-20010904/DTD/svg10.dtd">
<svg version="1.0" xmlns="http://www.w3.org/2000/svg"
 width="256.000000pt" height="140.000000pt" viewBox="0 0 256.000000 140.000000"
 preserveAspectRatio="xMidYMid meet">

<g transform="translate(0.000000,140.000000) scale(0.100000,-0.100000)"
fill="#000000" stroke="none">
<path d="M1910 1271 c0 -6 4 -13 10 -16 6 -3 7 1 4 9 -7 18 -14 21 -14 7z"/>
<path d="M1655 1179 c-50 -45 -68 -83 -62 -136 6 -56 41 -101 108 -138 96 -53
239 -37 303 34 22 25 20 26 -25 7 -19 -8 -54 -17 -79 -20 l-45 -6 40 13 c84
28 125 77 125 150 0 55 -19 63 -93 41 -75 -23 -140 -22 -207 2 -54 19 -58 28
-34 62 21 31 11 28 -31 -9z m263 -150 c-5 -35 -28 -36 -28 -1 0 16 3 32 7 36
11 11 25 -10 21 -35z"/>
<path d="M1730 823 c-44 -14 -45 -15 -15 -29 17 -7 39 -13 51 -14 12 0 38 -11
58 -25 25 -17 50 -25 81 -25 71 0 79 -7 50 -42 -32 -38 -26 -47 13 -18 29 21
62 22 62 2 0 -18 -62 -93 -93 -113 -18 -11 -43 -18 -57 -17 -14 1 -25 -2 -25
-7 0 -18 81 -8 126 15 88 44 98 74 54 159 -28 56 -67 87 -132 107 -45 14 -142
18 -173 7z"/>
<path d="M600 565 c-34 -86 -60 -158 -57 -162 17 -17 38 18 83 136 27 72 51
131 54 131 5 0 60 -140 60 -153 0 -4 -25 -7 -56 -7 -34 0 -53 -4 -49 -10 3 -5
27 -10 53 -10 58 0 66 -5 85 -52 15 -36 48 -53 47 -25 -1 6 -27 77 -59 157
-80 197 -80 197 -161 -5z"/>
<path d="M751 713 c0 -4 28 -75 62 -158 84 -203 84 -203 165 -3 34 84 62 157
62 161 0 5 -10 7 -21 5 -17 -2 -31 -27 -68 -120 -25 -64 -49 -119 -52 -122 -3
-3 -27 49 -55 117 -40 101 -53 123 -71 125 -13 2 -23 0 -22 -5z"/>
<path d="M1117 710 c-36 -11 -57 -28 -57 -46 0 -18 30 -17 54 1 23 17 59 19
86 5 22 -12 50 14 33 31 -15 15 -82 20 -116 9z"/>
<path d="M1245 600 c-10 -11 -34 -22 -54 -25 -112 -18 -151 -43 -151 -99 0
-25 7 -40 26 -55 33 -26 69 -27 119 -1 22 11 43 20 47 20 4 0 8 -9 8 -20 0
-13 7 -20 20 -20 19 0 20 7 20 110 0 61 -4 110 -8 110 -5 0 -17 -9 -27 -20z
m-17 -87 c4 -43 -37 -75 -91 -71 -81 6 -63 80 23 97 60 12 64 10 68 -26z"/>
<path d="M1850 375 c-13 -24 -103 -75 -132 -75 -18 0 24 -28 55 -35 48 -12
140 34 166 84 7 13 4 16 -16 17 -13 1 -32 9 -42 18 -16 15 -19 14 -31 -9z"/>
<path d="M780 295 c-4 -36 1 -60 16 -73 9 -8 10 -8 4 0 -14 17 -12 48 3 48 8
0 9 3 1 8 -6 4 -14 14 -17 22 -4 11 -6 10 -7 -5z"/>
<path d="M989 294 c-2 -38 3 -59 18 -74 14 -13 14 -13 2 7 -9 16 -10 25 -2 35
8 10 8 18 -3 32 -14 20 -14 20 -15 0z"/>
<path d="M523 267 c3 -8 1 -19 -5 -25 -15 -15 0 -32 28 -32 22 0 25 4 22 33
-2 25 -8 33 -27 35 -18 3 -22 0 -18 -11z m29 -39 c-6 -6 -16 -7 -22 -3 -9 6
-9 9 1 16 17 10 34 0 21 -13z"/>
<path d="M597 273 c-12 -12 -7 -22 13 -28 27 -9 26 -29 -1 -22 -16 4 -19 3
-11 -5 6 -6 18 -8 26 -5 20 8 21 37 2 37 -8 0 -18 5 -22 12 -5 8 0 9 14 6 12
-4 20 -2 16 3 -6 11 -28 12 -37 2z"/>
<path d="M673 245 c0 -22 2 -30 4 -17 2 12 2 30 0 40 -3 9 -5 -1 -4 -23z"/>
<path d="M704 269 c-7 -12 12 -29 34 -29 7 0 10 -5 7 -10 -4 -6 -16 -8 -28 -4
-17 5 -19 3 -11 -6 14 -15 46 -10 52 8 2 7 -5 16 -17 19 -12 3 -21 10 -21 15
0 5 10 6 21 3 15 -5 19 -4 15 4 -9 14 -43 14 -52 0z"/>
<path d="M830 265 c-23 -28 17 -72 42 -47 8 8 5 9 -9 6 -12 -3 -24 -1 -27 5
-5 7 4 11 23 11 33 0 39 8 19 28 -16 16 -33 15 -48 -3z m40 -5 c0 -5 -7 -10
-15 -10 -8 0 -15 5 -15 10 0 6 7 10 15 10 8 0 15 -4 15 -10z"/>
<path d="M912 243 c1 -37 1 -37 5 -5 3 18 10 32 18 32 8 0 16 -14 18 -32 l5
-33 -2 35 c-1 28 -5 36 -23 38 -21 3 -23 -1 -21 -35z"/>
<path d="M1040 265 c-23 -28 17 -72 42 -47 8 8 5 9 -11 5 -12 -3 -21 -1 -21 6
0 6 11 11 25 11 27 0 32 9 13 28 -16 16 -33 15 -48 -3z m40 -5 c0 -5 -7 -10
-15 -10 -8 0 -15 5 -15 10 0 6 7 10 15 10 8 0 15 -4 15 -10z"/>
<path d="M1497 259 c4 -13 8 -18 11 -10 2 7 -1 18 -6 23 -8 8 -9 4 -5 -13z"/>
<path d="M1382 250 c0 -14 2 -19 5 -12 2 6 2 18 0 25 -3 6 -5 1 -5 -13z"/>
<path d="M1410 220 c-13 -8 -12 -10 3 -10 9 0 17 5 17 10 0 12 -1 12 -20 0z"/>
<path d="M1485 220 c-19 -8 -19 -9 3 -9 12 -1 22 4 22 9 0 6 -1 10 -2 9 -2 0
-12 -4 -23 -9z"/>
</g>
</svg>
